<?xml version="1.0" standalone="no"?><!DOCTYPE svg PUBLIC "-//W3C//DTD SVG 1.1//EN" "http://www.w3.org/Graphics/SVG/1.1/DTD/svg11.dtd"><svg height="1024" node-id="1" sillyvg="true" template-height="1024" template-width="1024" version="1.1" viewBox="0 0 1024 1024" width="1024" xmlns="http://www.w3.org/2000/svg" xmlns:xlink="http://www.w3.org/1999/xlink"><defs node-id="109"></defs><path d="M 852.70 517.10 L 840.30 510.20 L 827.40 503.60 L 814.20 497.30 L 800.60 491.30 L 786.70 485.60 L 769.20 479.00 L 751.20 472.80 L 732.90 467.20 L 714.00 462.00 L 695.10 457.30 L 676.00 453.10 L 656.50 449.40 L 636.70 446.20 L 616.90 443.50 L 596.90 441.30 L 576.80 439.60 L 556.50 438.30 L 536.30 437.60 L 516.00 437.30 L 495.70 437.60 L 475.50 438.30 L 455.20 439.60 L 435.10 441.30 L 415.20 443.50 L 395.40 446.20 L 375.60 449.40 L 356.20 453.10 L 337.00 457.30 L 318.20 462.00 L 299.40 467.20 L 281.10 472.80 L 263.20 479.00 L 245.80 485.60 L 231.90 491.30 L 218.40 497.30 L 205.30 503.60 L 192.50 510.20 L 180.10 517.10 L 166.70 525.10 L 154.20 533.20 L 142.50 541.40 L 131.60 549.60 L 121.50 558.00 L 112.10 566.30 L 102.70 575.50 L 94.00 584.60 L 86.20 593.80 L 79.10 603.00 L 72.60 612.10 L 66.90 621.40 L 61.50 631.20 L 56.70 640.90 L 52.70 650.70 L 49.30 660.40 L 46.60 670.10 L 44.50 679.90 L 42.90 689.80 L 42.10 699.80 L 41.80 709.70 L 42.20 719.60 L 43.20 729.50 L 44.80 739.50 L 47.10 749.20 L 49.90 759.00 L 53.40 768.70 L 57.50 778.40 L 62.40 788.20 L 67.90 798.00 L 73.80 807.20 L 80.30 816.40 L 87.60 825.50 L 95.50 834.70 L 104.20 843.90 L 113.70 853.00 L 123.20 861.40 L 133.50 869.70 L 144.40 878.00 L 156.20 886.10 L 168.80 894.20 L 182.30 902.20 L 194.80 909.10 L 207.60 915.70 L 220.80 922.00 L 234.40 928.00 L 248.30 933.80 L 265.80 940.40 L 283.80 946.50 L 302.20 952.20 L 321.00 957.40 L 339.90 962.00 L 359.10 966.20 L 378.60 969.90 L 398.40 973.10 L 418.20 975.90 L 438.20 978.10 L 458.30 979.80 L 478.50 981.00 L 498.80 981.80 L 519.10 982.00 L 539.30 981.80 L 559.60 981.00 L 579.90 979.80 L 600.00 978.10 L 619.90 975.90 L 639.70 973.10 L 659.50 969.90 L 678.90 966.20 L 698.00 962.00 L 716.90 957.40 L 735.70 952.20 L 754.00 946.50 L 771.80 940.40 L 789.30 933.80 L 803.20 928.00 L 816.70 922.00 L 829.80 915.70 L 842.60 909.10 L 855.00 902.20 L 868.40 894.20 L 880.90 886.10 L 892.60 878.00 L 903.40 869.70 L 913.50 861.40 L 922.90 853.00 L 932.30 843.90 L 941.00 834.70 L 948.80 825.60 L 955.90 816.40 L 962.30 807.20 L 968.10 798.00 L 973.50 788.20 L 978.30 778.40 L 982.30 768.70 L 985.70 759.00 L 988.40 749.20 L 990.50 739.50 L 992.00 729.50 L 992.90 719.60 L 993.20 709.70 L 992.80 699.80 L 991.80 689.80 L 990.20 679.90 L 987.90 670.10 L 985.10 660.40 L 981.60 650.70 L 977.50 640.90 L 972.60 631.20 L 967.10 621.40 L 961.20 612.20 L 954.70 603.00 L 947.40 593.80 L 939.50 584.60 L 930.80 575.50 L 921.30 566.30 L 911.80 558.00 L 901.60 549.60 L 890.60 541.40 L 878.80 533.20 L 866.20 525.10 L 852.70 517.10 Z" fill="#f9fafe" fill-rule="nonzero" node-id="111" stroke="none" target-height="544.7" target-width="951.4" target-x="41.8" target-y="437.3"></path><path d="M 518.80 633.00 L 526.50 637.70 L 533.40 642.50 L 539.80 647.30 L 545.50 652.20 L 550.60 657.10 L 555.60 662.50 L 560.00 667.90 L 563.70 673.30 L 567.00 678.80 L 569.70 684.20 L 572.00 690.00 L 573.80 695.70 L 575.00 701.40 L 575.80 707.10 L 576.00 712.80 L 575.80 718.60 L 575.00 724.30 L 573.80 730.00 L 572.00 735.70 L 569.70 741.50 L 567.00 746.90 L 563.70 752.30 L 560.00 757.70 L 555.60 763.10 L 550.60 768.60 L 545.50 773.50 L 539.80 778.30 L 533.40 783.20 L 526.50 787.90 L 518.80 792.60 L 510.50 797.10 L 501.90 801.30 L 492.90 805.20 L 483.50 808.80 L 474.00 812.00 L 454.20 817.40 L 444.00 819.60 L 430.20 822.00 L 416.20 823.80 L 402.00 825.00 L 387.70 825.60 L 373.40 825.60 L 359.20 825.00 L 344.90 823.80 L 331.00 822.00 L 317.20 819.60 L 306.90 817.40 L 287.20 812.00 L 277.70 808.80 L 268.30 805.20 L 259.30 801.30 L 250.60 797.10 L 242.30 792.60 L 234.60 787.90 L 227.70 783.20 L 221.30 778.30 L 215.60 773.50 L 210.50 768.60 L 205.50 763.10 L 201.10 757.70 L 197.30 752.30 L 194.10 746.90 L 191.40 741.50 L 189.10 735.70 L 187.30 730.00 L 186.00 724.30 L 185.30 718.60 L 185.00 712.80 L 185.30 707.10 L 186.10 701.40 L 187.30 695.70 L 189.10 690.00 L 191.40 684.20 L 194.10 678.80 L 197.40 673.30 L 201.10 667.90 L 205.50 662.50 L 210.50 657.10 L 215.60 652.20 L 221.30 647.30 L 227.70 642.50 L 234.60 637.70 L 242.30 633.00 L 250.60 628.50 L 259.20 624.30 L 268.30 620.40 L 277.70 616.80 L 287.20 613.70 L 306.90 608.30 L 317.20 606.10 L 330.90 603.70 L 344.90 601.90 L 359.10 600.70 L 373.40 600.10 L 387.70 600.10 L 402.00 600.70 L 416.20 601.90 L 430.20 603.70 L 444.00 606.10 L 454.20 608.30 L 474.00 613.70 L 483.50 616.80 L 492.90 620.40 L 501.90 624.30 L 510.50 628.50 L 518.80 633.00 Z" fill="#d3d3d3" fill-rule="nonzero" node-id="113" stroke="none" target-height="225.5" target-width="391" target-x="185" target-y="600.1"></path><path d="M 835.60 681.20 L 840.40 684.40 L 844.40 687.60 L 847.70 690.80 L 850.30 694.10 L 852.50 697.80 L 854.00 701.50 L 854.90 705.10 L 855.20 708.80 L 854.90 712.50 L 854.00 716.10 L 852.50 719.80 L 850.30 723.50 L 847.70 726.80 L 844.40 730.00 L 840.40 733.20 L 835.60 736.40 L 830.20 739.20 L 824.40 741.70 L 818.20 743.70 L 811.90 745.30 L 805.30 746.60 L 798.60 747.40 L 791.70 747.80 L 784.90 747.80 L 778.10 747.40 L 771.30 746.60 L 764.70 745.30 L 758.40 743.70 L 752.20 741.70 L 746.40 739.20 L 741.00 736.40 L 736.20 733.20 L 732.20 730.00 L 729.00 726.80 L 726.40 723.50 L 724.20 719.80 L 722.70 716.10 L 721.80 712.50 L 721.50 708.80 L 721.80 705.10 L 722.70 701.50 L 724.20 697.80 L 726.40 694.10 L 729.00 690.80 L 732.20 687.60 L 736.20 684.40 L 741.00 681.20 L 746.40 678.40 L 752.20 676.00 L 758.40 673.90 L 764.80 672.30 L 771.30 671.10 L 778.10 670.30 L 784.90 669.80 L 791.80 669.80 L 798.60 670.30 L 805.40 671.10 L 811.90 672.30 L 818.30 673.90 L 824.50 676.00 L 830.20 678.40 L 835.60 681.20 Z" fill="#d3d3d3" fill-rule="nonzero" node-id="115" stroke="none" target-height="78" target-width="133.70001" target-x="721.5" target-y="669.8"></path><path d="M 746.50 713.00 L 742.90 708.90 L 739.50 704.10 L 736.20 698.50 L 733.20 692.70 L 730.50 686.50 L 728.10 679.90 L 726.00 673.10 L 723.00 659.40 L 722.10 652.40 L 721.60 645.70 L 721.60 639.20 L 722.10 632.80 L 723.10 627.00 L 724.60 621.80 L 726.20 618.00 L 728.10 614.70 L 730.30 611.80 L 732.80 609.40 L 844.00 609.40 L 846.50 611.80 L 848.70 614.70 L 850.60 618.00 L 852.20 621.80 L 853.70 627.00 L 854.70 632.80 L 855.20 639.20 L 855.20 645.70 L 854.70 652.40 L 853.80 659.30 L 850.80 673.10 L 848.70 679.90 L 846.30 686.50 L 843.60 692.70 L 840.60 698.50 L 837.30 704.10 L 833.90 708.90 L 829.70 713.60 L 826.40 716.60 L 821.80 719.70 L 817.00 722.20 L 811.80 724.20 L 806.10 725.80 L 800.40 726.90 L 794.50 727.60 L 788.40 727.80 L 782.30 727.60 L 776.40 726.90 L 770.60 725.80 L 765.00 724.20 L 759.80 722.20 L 755.00 719.70 L 749.90 716.10 L 746.50 713.00 Z" fill="#000000" fill-rule="nonzero" node-id="117" stroke="none" target-height="118.39996" target-width="133.60004" target-x="721.6" target-y="609.4"></path><path d="M 834.40 602.00 L 839.10 605.00 L 843.00 608.20 L 846.10 611.30 L 848.60 614.50 L 850.80 618.10 L 852.30 621.70 L 853.10 625.20 L 853.40 628.80 L 853.10 632.40 L 852.30 636.00 L 850.80 639.50 L 848.60 643.10 L 846.10 646.30 L 843.00 649.50 L 839.10 652.60 L 834.40 655.60 L 829.20 658.40 L 823.50 660.70 L 817.50 662.70 L 811.30 664.30 L 805.00 665.50 L 798.40 666.30 L 791.70 666.70 L 778.50 666.30 L 771.90 665.50 L 765.50 664.30 L 759.30 662.80 L 753.30 660.80 L 747.70 658.40 L 742.40 655.60 L 737.70 652.60 L 733.90 649.50 L 730.70 646.30 L 728.20 643.10 L 726.00 639.50 L 724.60 635.90 L 723.70 632.40 L 723.40 628.80 L 723.70 625.20 L 724.60 621.70 L 726.00 618.10 L 728.20 614.50 L 730.70 611.30 L 733.90 608.10 L 737.70 605.00 L 742.40 602.00 L 747.70 599.20 L 753.30 596.90 L 759.30 594.90 L 765.50 593.30 L 771.90 592.10 L 778.50 591.30 L 785.10 590.90 L 798.30 591.30 L 804.90 592.10 L 811.30 593.30 L 817.50 594.90 L 823.50 596.90 L 829.10 599.20 L 834.40 602.00 Z" fill="#9e9e9e" fill-rule="nonzero" node-id="119" stroke="none" target-height="75.79999" target-width="130" target-x="723.4" target-y="590.9"></path><path d="M 822.10 609.10 L 828.50 613.60 L 832.60 618.30 L 834.20 621.00 L 835.30 623.60 L 835.90 626.20 L 836.10 628.80 L 835.90 631.40 L 835.30 634.00 L 834.20 636.70 L 832.60 639.30 L 828.50 644.00 L 822.10 648.50 L 817.30 651.00 L 812.10 653.00 L 806.40 654.60 L 800.50 655.80 L 794.50 656.50 L 788.40 656.70 L 782.20 656.50 L 776.20 655.80 L 770.40 654.60 L 764.70 653.00 L 759.40 651.00 L 754.60 648.50 L 748.20 644.00 L 744.00 639.30 L 742.50 636.70 L 741.40 634.10 L 740.80 631.40 L 740.50 628.80 L 740.80 626.20 L 741.40 623.60 L 742.50 621.00 L 744.10 618.30 L 748.30 613.60 L 754.60 609.10 L 759.40 606.60 L 764.70 604.60 L 770.40 603.00 L 776.20 601.80 L 782.20 601.20 L 788.40 600.90 L 794.50 601.20 L 800.50 601.80 L 806.40 603.00 L 812.10 604.60 L 817.30 606.60 L 822.10 609.10 Z" fill="#000000" fill-rule="nonzero" node-id="121" stroke="none" target-height="55.799988" target-width="95.599976" target-x="740.5" target-y="600.9"></path><path d="M 754.60 627.80 L 759.50 625.30 L 764.70 623.30 L 770.40 621.70 L 776.30 620.60 L 782.30 619.90 L 788.40 619.60 L 794.60 619.90 L 800.50 620.60 L 806.40 621.70 L 812.10 623.30 L 817.40 625.30 L 822.20 627.80 L 825.50 629.90 L 828.50 632.30 L 831.10 635.10 L 833.40 638.20 L 831.10 641.30 L 828.50 644.00 L 825.50 646.50 L 822.20 648.50 L 817.40 651.00 L 812.20 653.00 L 806.40 654.60 L 800.60 655.80 L 794.60 656.40 L 788.50 656.70 L 782.30 656.40 L 776.30 655.80 L 770.50 654.60 L 764.80 653.00 L 759.50 651.00 L 754.60 648.50 L 751.40 646.50 L 748.40 644.00 L 745.70 641.30 L 743.40 638.20 L 745.70 635.10 L 748.40 632.30 L 751.40 629.90 L 754.60 627.80 Z" fill="#000000" fill-rule="nonzero" node-id="123" stroke="none" target-height="37.100037" target-width="90" target-x="743.4" target-y="619.6"></path><path d="M 820.40 459.40 L 790.50 490.30 L 820.90 471.10 L 821.40 476.40 L 821.50 486.90 L 820.30 497.30 L 819.30 502.50 L 811.30 509.20 L 803.70 516.20 L 796.50 523.70 L 820.00 510.60 L 821.00 516.70 L 821.70 527.60 L 821.70 535.10 L 821.30 543.00 L 819.80 555.20 L 816.20 566.40 L 810.30 582.60 L 807.70 589.40 L 804.30 596.80 L 785.40 589.70 L 781.20 581.80 L 776.50 570.70 L 772.00 558.00 L 770.00 551.50 L 768.30 545.10 L 766.60 537.00 L 765.60 529.30 L 765.10 522.00 L 765.10 514.90 L 765.70 507.80 L 766.70 501.00 L 768.20 494.50 L 770.10 488.20 L 772.40 482.10 L 775.10 476.20 L 778.00 470.60 L 781.30 465.20 L 786.20 458.40 L 791.40 452.00 L 797.00 446.10 L 803.00 440.50 L 809.10 435.50 L 815.40 430.90 L 821.90 426.70 L 828.30 423.10 L 834.50 420.00 L 830.90 426.70 L 826.20 437.70 L 823.80 444.50 L 821.80 451.70 L 820.40 459.40 Z" fill="#a3e4b3" fill-rule="nonzero" node-id="125" stroke="none" target-height="176.79999" target-width="69.400024" target-x="765.1" target-y="420"></path><path d="M 792.80 465.80 L 790.10 469.80 L 787.80 474.10 L 786.00 478.50 L 783.80 485.50 L 782.20 492.50 L 781.00 499.70 L 779.90 514.10 L 779.90 521.40 L 780.30 528.60 L 781.10 535.80 L 782.30 542.90 L 783.90 549.90 L 785.90 556.80 L 788.40 563.60 L 791.20 570.20 L 794.40 576.70 L 794.30 577.70 L 793.30 578.10 L 792.80 577.60 L 789.60 571.00 L 786.80 564.20 L 784.50 557.30 L 782.50 550.30 L 781.00 543.10 L 779.90 535.90 L 779.20 528.70 L 779.00 521.30 L 779.10 514.00 L 780.50 499.50 L 781.70 492.40 L 783.50 485.40 L 785.70 478.40 L 787.70 474.00 L 790.00 469.80 L 792.80 465.80 Z" fill="#f9fafe" fill-rule="nonzero" node-id="127" stroke="none" target-height="112.29999" target-width="15.400024" target-x="779" target-y="465.8"></path><path d="M 688.50 484.30 L 696.40 499.10 L 702.30 511.10 L 716.20 542.60 L 751.00 554.70 L 723.80 554.70 L 734.10 579.60 L 768.00 593.10 L 739.70 592.70 L 740.80 599.00 L 743.30 608.50 L 747.10 617.90 L 751.40 625.50 L 754.00 629.10 L 756.90 632.40 L 760.30 635.60 L 765.00 639.30 L 768.50 641.50 L 772.80 643.30 L 776.90 643.60 L 779.00 643.00 L 782.50 640.70 L 784.20 638.80 L 787.70 632.70 L 791.80 622.60 L 793.40 616.20 L 794.00 612.00 L 794.50 605.40 L 794.50 597.80 L 794.00 589.80 L 792.90 581.10 L 791.30 572.20 L 789.00 563.00 L 787.40 558.20 L 783.20 548.90 L 780.70 544.50 L 776.10 537.90 L 771.00 531.70 L 765.30 525.70 L 759.30 520.10 L 752.90 514.80 L 746.20 509.90 L 732.30 501.20 L 718.40 494.10 L 705.40 488.80 L 699.00 486.70 L 688.50 484.30 Z" fill="#24883d" fill-rule="nonzero" node-id="129" stroke="none" target-height="159.29999" target-width="106" target-x="688.5" target-y="484.3"></path><path d="M 723.90 502.60 L 732.30 508.50 L 740.30 514.90 L 748.00 521.90 L 753.40 527.40 L 758.50 533.20 L 763.20 539.30 L 767.60 545.80 L 771.50 552.50 L 775.00 559.40 L 777.80 566.60 L 780.10 574.10 L 781.70 581.70 L 782.70 589.30 L 783.00 597.10 L 782.70 604.80 L 781.30 589.50 L 780.00 582.00 L 778.20 574.60 L 776.00 567.30 L 773.20 560.20 L 770.00 553.30 L 766.30 546.60 L 762.10 540.20 L 757.50 534.00 L 752.60 528.20 L 747.30 522.60 L 739.90 515.50 L 732.00 508.90 L 723.90 502.60 Z" fill="#f9fafe" fill-rule="nonzero" node-id="131" stroke="none" target-height="102.19998" target-width="59.099976" target-x="723.9" target-y="502.6"></path><path d="M 910.80 496.40 L 900.00 496.90 L 891.60 498.10 L 883.20 499.70 L 875.00 501.70 L 866.80 504.10 L 858.80 506.90 L 844.10 513.10 L 831.00 520.00 L 820.00 527.40 L 809.90 536.00 L 805.20 540.70 L 801.20 545.50 L 797.60 550.60 L 793.20 558.10 L 787.80 570.60 L 785.70 576.80 L 784.10 582.50 L 782.00 593.60 L 781.20 606.60 L 781.40 614.50 L 782.30 623.80 L 784.10 632.50 L 786.30 639.40 L 788.40 643.10 L 790.70 644.60 L 794.20 644.90 L 799.60 643.60 L 803.70 641.80 L 809.00 639.00 L 813.00 636.50 L 816.70 633.50 L 823.10 626.70 L 828.20 619.50 L 831.40 613.90 L 835.80 604.20 L 838.00 597.80 L 809.00 592.90 L 846.30 585.40 L 861.40 561.80 L 833.50 556.70 L 871.40 550.90 L 882.70 534.10 L 891.60 521.40 L 899.90 510.20 L 910.80 496.40 Z" fill="#24883d" fill-rule="nonzero" node-id="133" stroke="none" target-height="148.50003" target-width="129.59998" target-x="781.2" target-y="496.4"></path><g node-id="329"><path d="M 900.00 496.90 L 891.60 498.10 L 883.20 499.70 L 875.00 501.70 L 866.80 504.10 L 858.80 506.90 L 844.10 513.10 L 831.00 520.00 L 820.00 527.40 L 809.90 536.00 L 805.20 540.70 L 801.20 545.50 L 797.60 550.60 L 793.20 558.10 L 787.80 570.60 L 784.10 582.50 L 782.00 593.60 L 781.20 606.60 L 781.40 614.50 L 781.70 619.10 L 783.20 628.40 L 785.30 636.40 L 787.50 641.90 L 788.40 643.10 L 789.40 643.90 L 791.70 644.80 L 791.30 639.70 L 791.40 633.10 L 791.90 626.10 L 794.20 609.90 L 796.00 601.40 L 800.40 584.70 L 803.20 576.70 L 808.30 564.90 L 812.70 557.50 L 819.60 549.00 L 828.60 539.60 L 839.80 530.00 L 845.80 525.40 L 859.70 516.40 L 867.10 512.30 L 875.00 508.40 L 883.50 504.70 L 892.10 501.60 L 901.20 498.80 L 910.80 496.40 L 900.00 496.90 Z" fill="#000000" fill-opacity="0.2" fill-rule="nonzero" group-id="1" node-id="137" stroke="none" target-height="148.4" target-width="129.59998" target-x="781.2" target-y="496.4"></path></g><path d="M 791.60 644.80 L 791.30 636.30 L 791.40 627.90 L 791.90 619.40 L 792.90 611.00 L 794.40 602.60 L 795.80 595.70 L 799.80 582.10 L 805.20 569.00 L 808.30 562.60 L 812.20 556.60 L 816.40 550.90 L 821.10 545.50 L 826.10 540.40 L 836.70 531.00 L 843.50 525.90 L 850.50 521.10 L 857.80 516.80 L 865.30 512.80 L 873.20 509.30 L 864.00 514.60 L 855.10 520.20 L 846.50 526.30 L 832.90 537.30 L 827.80 542.10 L 818.20 552.30 L 813.90 557.70 L 810.10 563.50 L 806.80 569.70 L 801.30 582.60 L 797.10 595.90 L 795.60 602.80 L 794.00 611.10 L 792.80 619.40 L 792.10 627.80 L 791.80 636.20 L 791.90 644.80 L 791.60 644.80 Z" fill="#f9fafe" fill-rule="nonzero" node-id="140" stroke="none" target-height="135.5" target-width="81.900024" target-x="791.3" target-y="509.3"></path><path d="M 303.80 233.20 L 308.40 236.00 L 402.00 181.90 L 397.50 179.10 L 303.80 233.20 Z" fill="#9e9e9e" fill-rule="nonzero" node-id="142" stroke="none" target-height="56.899994" target-width="98.20001" target-x="303.8" target-y="179.1"></path><path d="M 397.50 179.10 L 308.40 230.60 L 308.40 137.30 L 397.50 85.80 L 397.50 179.10 Z" fill="#ffffff" fill-rule="nonzero" node-id="144" stroke="none" target-height="144.8" target-width="89.100006" target-x="308.4" target-y="85.8"></path><path d="M 410.70 68.20 L 299.70 132.30 L 299.70 250.90 L 410.70 186.80 L 410.70 68.20 Z M 402.00 181.90 L 308.40 236.00 L 308.40 137.20 L 402.00 83.10 L 402.00 181.90 Z" fill="#d3d3d3" fill-rule="nonzero" node-id="146" stroke="none" target-height="182.7" target-width="111" target-x="299.7" target-y="68.2"></path><path d="M 402.00 181.90 L 397.50 179.10 L 397.50 85.80 L 402.00 83.10 L 402.00 181.90 Z" fill="#f9fafe" fill-rule="nonzero" node-id="148" stroke="none" target-height="98.799995" target-width="4.5" target-x="397.5" target-y="83.1"></path><path d="M 410.70 68.20 L 406.00 65.60 L 295.10 129.60 L 299.70 132.30 L 410.70 68.20 Z" fill="#9e9e9e" fill-rule="nonzero" node-id="150" stroke="none" target-height="66.700005" target-width="115.600006" target-x="295.1" target-y="65.6"></path><path d="M 295.10 129.60 L 299.70 132.30 L 299.70 250.90 L 295.10 248.20 L 295.10 129.60 Z" fill="#f9fafe" fill-rule="nonzero" node-id="152" stroke="none" target-height="121.29999" target-width="4.600006" target-x="295.1" target-y="129.6"></path><path d="M 394.00 176.40 L 311.80 223.80 L 311.80 200.10 L 332.40 152.60 L 345.20 164.50 L 340.60 184.40 L 368.90 123.70 L 394.00 152.60 L 394.00 176.40 Z" fill="#d3d3d3" fill-rule="nonzero" node-id="154" stroke="none" target-height="100.100006" target-width="82.20001" target-x="311.8" target-y="123.7"></path><path d="M 344.40 129.70 L 342.70 131.00 L 340.10 134.20 L 339.20 136.20 L 338.30 140.20 L 338.50 142.10 L 339.10 143.40 L 340.10 144.20 L 341.20 144.60 L 342.60 144.50 L 344.40 143.70 L 346.10 142.50 L 348.80 139.20 L 350.30 135.30 L 350.60 133.20 L 350.30 131.40 L 349.60 130.10 L 348.70 129.30 L 347.60 128.90 L 346.20 129.00 L 344.40 129.70 Z" fill="#d3d3d3" fill-rule="nonzero" node-id="156" stroke="none" target-height="15.700012" target-width="12.300018" target-x="338.3" target-y="128.9"></path><path d="M 142.40 336.20 L 146.90 339.00 L 240.60 284.90 L 236.10 282.10 L 142.40 336.20 Z" fill="#9e9e9e" fill-rule="nonzero" node-id="158" stroke="none" target-height="56.899994" target-width="98.20001" target-x="142.4" target-y="282.1"></path><path d="M 236.10 282.10 L 146.90 333.60 L 146.90 240.30 L 236.10 188.80 L 236.10 282.10 Z" fill="#ffffff" fill-rule="nonzero" node-id="160" stroke="none" target-height="144.8" target-width="89.20001" target-x="146.9" target-y="188.8"></path><path d="M 249.20 171.30 L 138.30 235.30 L 138.30 353.90 L 249.20 289.80 L 249.20 171.30 Z M 240.60 284.90 L 146.90 339.00 L 146.90 240.30 L 240.60 186.20 L 240.60 284.90 Z" fill="#d3d3d3" fill-rule="nonzero" node-id="162" stroke="none" target-height="182.59999" target-width="110.899994" target-x="138.3" target-y="171.3"></path><path d="M 240.60 284.90 L 236.10 282.10 L 236.10 188.80 L 240.60 186.20 L 240.60 284.90 Z" fill="#f9fafe" fill-rule="nonzero" node-id="164" stroke="none" target-height="98.7" target-width="4.5" target-x="236.1" target-y="186.2"></path><path d="M 249.20 171.20 L 244.60 168.60 L 133.70 232.60 L 138.30 235.30 L 249.20 171.20 Z" fill="#9e9e9e" fill-rule="nonzero" node-id="166" stroke="none" target-height="66.7" target-width="115.5" target-x="133.7" target-y="168.6"></path><path d="M 133.70 232.60 L 138.30 235.30 L 138.30 353.90 L 133.70 351.20 L 133.70 232.60 Z" fill="#f9fafe" fill-rule="nonzero" node-id="168" stroke="none" target-height="121.29999" target-width="4.600006" target-x="133.7" target-y="232.6"></path><path d="M 232.60 279.30 L 150.40 326.80 L 150.40 303.10 L 171.00 255.60 L 183.80 267.50 L 179.20 287.40 L 207.50 226.70 L 232.60 255.60 L 232.60 279.30 Z" fill="#d3d3d3" fill-rule="nonzero" node-id="170" stroke="none" target-height="100.09999" target-width="82.20001" target-x="150.4" target-y="226.7"></path><path d="M 183.00 232.70 L 179.90 235.50 L 178.70 237.30 L 177.70 239.20 L 176.80 243.30 L 177.10 245.10 L 177.70 246.40 L 178.60 247.20 L 179.80 247.60 L 181.20 247.50 L 183.00 246.80 L 184.70 245.50 L 187.30 242.20 L 188.20 240.30 L 189.10 236.20 L 188.80 234.40 L 188.20 233.10 L 187.30 232.30 L 186.10 231.90 L 184.80 232.00 L 183.00 232.70 Z" fill="#d3d3d3" fill-rule="nonzero" node-id="172" stroke="none" target-height="15.700012" target-width="12.300003" target-x="176.8" target-y="231.9"></path><path d="M 437.70 751.90 L 457.50 712.80 L 520.90 714.70 L 448.20 796.40 L 439.40 794.00 L 435.60 792.60 L 431.60 790.80 L 427.80 788.60 L 424.40 785.90 L 422.50 783.90 L 421.00 781.70 L 419.90 779.30 L 419.40 776.70 L 419.30 774.30 L 419.60 771.90 L 421.30 767.50 L 422.60 765.30 L 424.80 762.40 L 427.40 759.70 L 432.90 755.10 L 437.70 751.90 Z" fill="#ffe6e5" fill-rule="nonzero" node-id="174" stroke="none" target-height="83.60004" target-width="101.60004" target-x="419.3" target-y="712.8"></path><path d="M 413.70 771.60 L 410.60 776.10 L 409.20 779.80 L 410.50 793.00 L 410.70 798.00 L 410.10 802.60 L 406.50 821.60 L 406.30 825.30 L 406.90 830.70 L 408.80 837.30 L 410.40 841.10 L 412.70 845.60 L 416.10 851.30 L 419.40 856.00 L 422.60 859.90 L 429.60 866.30 L 432.80 868.60 L 439.30 872.10 L 442.20 873.20 L 445.50 873.90 L 448.80 874.00 L 452.10 873.60 L 456.50 869.90 L 458.00 868.10 L 459.00 866.20 L 459.30 864.80 L 458.90 861.90 L 413.70 771.60 Z" fill="#000000" fill-rule="nonzero" node-id="176" stroke="none" target-height="102.400024" target-width="53" target-x="406.3" target-y="771.6"></path><path d="M 463.00 783.10 L 462.50 785.50 L 459.10 793.50 L 458.30 796.80 L 457.40 805.50 L 457.30 810.50 L 458.00 822.20 L 460.20 834.10 L 463.90 850.80 L 464.20 854.00 L 464.10 857.10 L 463.50 859.90 L 462.50 862.70 L 460.80 865.50 L 458.30 868.50 L 455.90 870.10 L 454.20 870.70 L 450.20 870.90 L 447.60 870.50 L 442.00 868.50 L 438.40 866.60 L 430.80 861.50 L 423.90 855.60 L 419.40 850.00 L 416.50 845.20 L 414.00 840.10 L 411.90 834.80 L 410.40 829.90 L 409.80 826.60 L 409.60 821.40 L 410.30 816.70 L 413.60 801.60 L 414.10 798.00 L 413.80 791.80 L 412.70 780.90 L 412.90 774.20 L 413.60 771.60 L 415.70 767.90 L 418.20 764.60 L 421.30 761.70 L 432.10 753.70 L 435.30 750.80 L 436.20 750.40 L 437.10 750.40 L 438.20 751.00 L 435.60 755.70 L 434.40 758.60 L 433.40 762.50 L 433.30 763.80 L 434.40 768.60 L 434.90 772.80 L 435.00 781.20 L 438.30 774.20 L 439.40 772.70 L 441.30 771.50 L 445.20 771.20 L 447.40 771.60 L 450.00 772.70 L 454.10 775.10 L 461.20 780.20 L 462.20 781.20 L 463.00 783.10 Z" fill="#9e9e9e" fill-rule="nonzero" node-id="178" stroke="none" target-height="120.5" target-width="54.600006" target-x="409.6" target-y="750.4"></path><path d="M 426.10 857.70 L 421.70 853.00 L 419.40 850.00 L 416.50 845.20 L 414.00 840.10 L 411.90 834.80 L 410.40 829.90 L 409.60 823.80 L 409.60 821.40 L 411.30 812.00 L 412.00 820.90 L 412.80 824.30 L 414.10 827.50 L 415.80 830.60 L 418.20 833.80 L 421.40 837.70 L 425.20 840.70 L 426.50 841.40 L 429.00 841.70 L 431.50 840.40 L 432.50 839.20 L 433.60 837.10 L 434.20 834.60 L 434.40 829.40 L 439.20 829.80 L 443.80 830.70 L 448.40 832.10 L 455.80 835.70 L 456.60 836.50 L 456.90 839.80 L 457.70 842.90 L 460.00 847.00 L 461.60 848.70 L 463.80 849.80 L 464.20 853.20 L 464.20 856.40 L 463.70 859.50 L 462.60 862.50 L 460.20 866.50 L 457.30 869.40 L 454.20 870.70 L 452.40 871.00 L 447.60 870.50 L 445.10 869.80 L 438.40 866.60 L 434.90 864.50 L 426.10 857.70 Z" fill="#000000" fill-rule="nonzero" node-id="180" stroke="none" target-height="59" target-width="54.600006" target-x="409.6" target-y="812"></path><path d="M 457.30 810.50 L 457.70 818.60 L 458.60 826.70 L 460.20 834.60 L 459.50 838.40 L 458.70 840.30 L 457.50 841.60 L 457.00 841.50 L 456.20 840.90 L 455.50 839.20 L 455.20 837.40 L 455.60 825.30 L 457.50 803.60 L 457.30 810.50 Z" fill="#000000" fill-rule="nonzero" node-id="182" stroke="none" target-height="38" target-width="5" target-x="455.2" target-y="803.6"></path><path d="M 429.70 766.50 L 429.10 763.60 L 429.00 760.70 L 429.40 757.80 L 430.40 755.00 L 435.30 750.80 L 437.10 750.40 L 438.20 751.00 L 435.60 755.70 L 434.40 758.60 L 433.70 760.60 L 433.30 763.80 L 434.40 768.60 L 435.10 777.00 L 433.40 803.90 L 433.70 812.00 L 434.40 818.00 L 437.20 830.00 L 437.50 832.80 L 436.30 833.60 L 435.00 833.40 L 433.20 832.30 L 431.20 829.40 L 429.30 824.00 L 427.90 815.50 L 427.70 805.80 L 428.20 796.30 L 430.00 784.40 L 430.70 776.30 L 430.30 769.20 L 429.70 766.50 Z" fill="#000000" fill-rule="nonzero" node-id="184" stroke="none" target-height="83.19995" target-width="10.5" target-x="427.7" target-y="750.4"></path><path d="M 433.60 830.40 L 442.20 831.20 L 445.60 832.00 L 448.90 833.40 L 456.60 838.30 L 457.90 837.80 L 458.00 836.40 L 453.50 833.10 L 450.00 831.10 L 446.40 829.60 L 442.70 828.70 L 438.90 828.20 L 433.90 828.10 L 433.20 828.80 L 433.10 829.30 L 433.60 830.40 Z" fill="#f9fafe" fill-rule="nonzero" node-id="186" stroke="none" target-height="10.200012" target-width="24.899994" target-x="433.1" target-y="828.1"></path><path d="M 433.10 819.90 L 442.00 821.00 L 445.60 822.00 L 449.20 823.50 L 452.70 825.50 L 457.30 828.70 L 458.60 828.30 L 458.90 827.30 L 458.40 826.50 L 454.10 823.30 L 450.30 821.20 L 446.50 819.60 L 442.60 818.50 L 433.80 817.60 L 433.30 817.70 L 432.60 818.40 L 432.70 819.50 L 433.10 819.90 Z" fill="#f9fafe" fill-rule="nonzero" node-id="188" stroke="none" target-height="11.100037" target-width="26.299988" target-x="432.6" target-y="817.6"></path><path d="M 430.70 808.80 L 440.60 810.00 L 444.60 811.10 L 448.70 812.80 L 452.60 815.10 L 457.60 818.60 L 458.60 818.40 L 459.30 817.60 L 458.90 816.20 L 454.10 812.70 L 449.90 810.30 L 445.60 808.50 L 441.30 807.30 L 436.70 806.60 L 431.50 806.20 L 430.90 806.30 L 430.20 807.00 L 430.20 808.30 L 430.70 808.80 Z" fill="#f9fafe" fill-rule="nonzero" node-id="190" stroke="none" target-height="12.399963" target-width="29.099976" target-x="430.2" target-y="806.2"></path><path d="M 430.30 798.90 L 440.10 800.10 L 444.00 801.10 L 447.90 802.80 L 451.80 805.10 L 456.80 808.50 L 457.30 808.60 L 458.20 808.10 L 458.50 807.00 L 458.30 806.50 L 453.30 802.70 L 449.20 800.40 L 445.00 798.60 L 440.70 797.40 L 436.30 796.70 L 431.20 796.40 L 430.60 796.50 L 429.90 797.20 L 429.90 798.40 L 430.30 798.90 Z" fill="#f9fafe" fill-rule="nonzero" node-id="192" stroke="none" target-height="12.199951" target-width="28.600006" target-x="429.9" target-y="796.4"></path><path d="M 432.00 788.90 L 441.70 790.00 L 445.70 791.10 L 449.60 792.80 L 453.40 795.00 L 458.40 798.50 L 459.40 798.40 L 459.80 798.00 L 460.10 797.00 L 459.60 796.10 L 454.90 792.70 L 450.80 790.30 L 446.60 788.60 L 442.40 787.40 L 437.90 786.70 L 432.80 786.40 L 431.50 787.20 L 431.50 788.40 L 432.00 788.90 Z" fill="#f9fafe" fill-rule="nonzero" node-id="194" stroke="none" target-height="12.099976" target-width="28.600006" target-x="431.5" target-y="786.4"></path><path d="M 396.90 612.80 L 433.90 604.80 L 468.40 598.40 L 492.30 594.80 L 503.40 593.60 L 514.00 592.80 L 523.00 592.50 L 529.30 592.80 L 534.80 593.50 L 539.70 594.50 L 544.00 595.80 L 548.20 597.50 L 552.00 599.50 L 555.20 601.80 L 558.00 604.20 L 560.50 607.10 L 562.70 610.00 L 564.40 613.20 L 565.90 616.60 L 567.20 621.30 L 568.00 626.20 L 568.20 631.50 L 567.90 636.70 L 567.10 642.00 L 565.80 647.50 L 564.10 652.40 L 561.80 657.80 L 555.40 669.70 L 547.20 682.50 L 540.30 692.20 L 524.70 712.00 L 500.80 739.60 L 486.50 755.00 L 469.10 772.90 L 467.20 772.60 L 464.10 771.40 L 460.90 769.70 L 453.20 764.40 L 449.50 761.20 L 446.10 757.70 L 443.30 754.20 L 441.80 751.70 L 440.20 747.00 L 463.30 694.10 L 391.60 715.00 L 373.60 713.70 L 365.50 712.50 L 350.40 709.20 L 343.30 707.10 L 330.30 702.20 L 322.10 698.30 L 314.40 694.00 L 307.20 689.50 L 300.20 684.50 L 287.30 674.00 L 278.10 665.60 L 251.90 639.40 L 396.90 612.80 Z" fill="#9e9e9e" fill-rule="nonzero" node-id="196" stroke="none" target-height="180.40002" target-width="316.30002" target-x="251.9" target-y="592.5"></path><path d="M 493.80 641.70 L 489.20 643.30 L 485.70 645.10 L 480.90 648.50 L 475.50 653.90 L 470.10 661.60 L 465.40 670.10 L 461.10 678.90 L 457.20 687.80 L 453.70 696.90 L 463.30 694.10 L 466.70 685.30 L 473.30 670.40 L 480.20 657.50 L 483.50 652.50 L 487.20 647.80 L 490.60 644.20 L 493.80 641.70 Z" fill="#000000" fill-rule="nonzero" node-id="198" stroke="none" target-height="55.200012" target-width="40.099976" target-x="453.7" target-y="641.7"></path><path d="M 504.40 649.00 L 507.10 645.60 L 509.40 641.70 L 509.70 640.30 L 509.50 639.00 L 509.00 638.10 L 507.40 636.90 L 504.80 636.60 L 500.40 637.30 L 496.80 638.50 L 492.70 640.30 L 488.70 642.70 L 482.10 648.00 L 477.60 653.40 L 471.70 664.80 L 388.50 689.40 L 389.00 690.90 L 472.90 666.10 L 479.00 654.20 L 482.10 650.40 L 485.60 647.10 L 489.40 644.20 L 493.20 641.90 L 497.10 640.10 L 500.50 638.90 L 503.80 638.30 L 506.20 638.30 L 507.50 638.80 L 508.00 639.50 L 508.10 640.40 L 507.10 642.80 L 497.20 655.40 L 491.70 663.20 L 486.60 671.20 L 481.90 679.50 L 474.70 694.40 L 471.00 703.00 L 463.90 721.60 L 455.00 747.70 L 451.10 760.70 L 452.70 761.20 L 456.50 748.30 L 465.50 722.30 L 472.70 703.60 L 480.00 686.90 L 488.10 672.10 L 493.10 664.10 L 498.50 656.40 L 504.40 649.00 Z" fill="#000000" fill-rule="nonzero" node-id="200" stroke="none" target-height="124.60004" target-width="121.20001" target-x="388.5" target-y="636.6"></path><path d="M 380.60 687.90 L 386.70 681.80 L 391.50 674.80 L 393.40 671.00 L 394.90 667.10 L 396.10 663.00 L 396.80 658.70 L 396.70 667.10 L 395.40 675.50 L 394.20 680.00 L 391.00 687.70 L 387.10 693.40 L 380.60 687.90 Z" fill="#000000" fill-rule="nonzero" node-id="202" stroke="none" target-height="34.700012" target-width="16.199982" target-x="380.6" target-y="658.7"></path><path d="M 447.00 741.00 L 475.80 757.80 L 491.70 764.50 L 480.20 798.30 L 430.20 783.50 L 447.00 741.00 Z" fill="#ffe6e5" fill-rule="nonzero" node-id="204" stroke="none" target-height="57.299988" target-width="61.5" target-x="430.2" target-y="741"></path><path d="M 552.80 771.30 L 563.10 774.20 L 567.50 775.90 L 571.30 777.90 L 574.70 780.20 L 580.10 785.20 L 583.20 789.90 L 584.10 792.30 L 584.60 794.80 L 584.70 797.50 L 584.20 800.50 L 583.10 803.90 L 579.80 810.60 L 577.60 813.90 L 575.10 817.00 L 572.20 819.80 L 569.10 822.00 L 564.30 824.00 L 561.80 824.50 L 556.70 824.80 L 552.20 824.70 L 547.80 824.20 L 543.40 823.20 L 533.80 820.30 L 552.80 771.30 Z" fill="#000000" fill-rule="nonzero" node-id="206" stroke="none" target-height="53.5" target-width="50.900024" target-x="533.8" target-y="771.3"></path><path d="M 466.90 794.60 L 468.10 796.20 L 469.70 797.30 L 476.60 800.20 L 503.60 808.60 L 508.20 810.30 L 523.50 816.80 L 532.30 819.90 L 542.20 822.50 L 546.40 823.10 L 549.90 823.30 L 553.30 822.90 L 556.60 822.20 L 560.00 821.00 L 565.90 818.20 L 570.10 815.00 L 572.90 811.90 L 575.30 808.30 L 576.70 805.70 L 578.50 800.20 L 578.80 797.40 L 578.80 794.50 L 578.30 791.60 L 577.40 788.80 L 575.90 786.00 L 573.70 783.30 L 570.40 779.90 L 567.00 777.30 L 563.60 775.30 L 556.00 772.30 L 545.20 770.20 L 524.80 767.90 L 512.20 766.00 L 495.40 762.40 L 480.90 757.50 L 477.20 756.90 L 475.80 757.70 L 478.70 758.90 L 485.70 762.50 L 487.30 763.70 L 488.50 765.30 L 487.80 766.40 L 486.80 766.70 L 482.20 765.90 L 480.10 766.20 L 479.20 766.60 L 478.20 767.80 L 476.90 770.50 L 473.40 785.60 L 472.80 790.00 L 472.90 791.10 L 473.80 792.40 L 478.90 794.60 L 479.60 795.30 L 480.00 796.20 L 479.60 796.70 L 478.60 796.90 L 476.80 796.80 L 473.40 796.20 L 466.90 794.60 Z" fill="#9e9e9e" fill-rule="nonzero" node-id="208" stroke="none" target-height="66.39996" target-width="111.899994" target-x="466.9" target-y="756.9"></path><path d="M 526.90 818.30 L 533.10 819.90 L 539.50 820.60 L 544.20 820.20 L 546.60 818.70 L 547.40 816.80 L 546.70 814.70 L 544.20 812.30 L 539.00 809.50 L 538.50 805.80 L 539.10 799.20 L 541.50 791.40 L 545.30 783.60 L 548.00 784.00 L 549.70 783.80 L 553.20 782.60 L 555.00 780.60 L 555.30 778.40 L 554.60 777.00 L 553.20 775.50 L 551.40 774.30 L 544.40 771.20 L 538.90 769.40 L 546.30 770.30 L 556.60 772.40 L 563.90 775.40 L 567.20 777.40 L 570.40 780.00 L 573.70 783.20 L 575.80 786.00 L 577.30 788.70 L 578.20 791.50 L 578.70 794.40 L 578.80 797.30 L 577.70 803.00 L 575.30 808.30 L 572.80 811.80 L 570.00 814.90 L 565.90 818.20 L 559.90 820.90 L 553.20 822.90 L 549.80 823.20 L 546.30 823.10 L 542.20 822.50 L 526.90 818.30 Z" fill="#000000" fill-rule="nonzero" node-id="210" stroke="none" target-height="53.799988" target-width="51.899963" target-x="526.9" target-y="769.4"></path><path d="M 540.20 808.30 L 542.00 808.80 L 542.90 809.50 L 543.20 810.30 L 543.00 811.30 L 542.40 812.20 L 541.10 813.20 L 537.60 814.30 L 534.80 814.40 L 528.80 813.80 L 522.80 812.60 L 504.40 808.00 L 497.60 806.70 L 486.30 803.40 L 472.20 798.70 L 467.80 796.20 L 467.10 795.20 L 466.90 794.40 L 479.60 797.20 L 504.20 804.60 L 510.50 806.10 L 516.70 807.10 L 521.90 807.50 L 534.00 807.80 L 540.20 808.30 Z" fill="#000000" fill-rule="nonzero" node-id="212" stroke="none" target-height="20" target-width="76.30002" target-x="466.9" target-y="794.4"></path><path d="M 544.80 785.60 L 534.00 780.40 L 518.60 775.50 L 488.10 764.20 L 475.80 757.70 L 477.30 756.70 L 478.70 756.50 L 483.90 757.10 L 487.00 758.00 L 502.10 764.10 L 514.80 768.70 L 539.10 775.90 L 543.20 777.50 L 545.70 778.90 L 547.40 780.40 L 548.50 782.10 L 548.90 783.50 L 548.80 784.40 L 547.90 785.60 L 546.20 785.90 L 544.80 785.60 Z" fill="#000000" fill-rule="nonzero" node-id="214" stroke="none" target-height="29.400024" target-width="73.10004" target-x="475.8" target-y="756.5"></path><path d="M 545.40 784.10 L 543.20 788.60 L 541.60 792.70 L 540.50 797.00 L 539.80 801.30 L 539.50 805.70 L 539.70 810.70 L 538.60 811.70 L 537.70 811.40 L 537.40 811.00 L 537.20 806.30 L 537.70 799.20 L 539.70 790.70 L 540.90 787.40 L 543.20 783.00 L 544.00 782.40 L 545.00 782.70 L 545.40 783.40 L 545.40 784.10 Z" fill="#d3d3d3" fill-rule="nonzero" node-id="216" stroke="none" target-height="29.299988" target-width="8.200012" target-x="537.2" target-y="782.4"></path><path d="M 534.60 778.70 L 532.20 783.80 L 530.40 788.70 L 529.00 793.80 L 528.00 798.90 L 527.50 804.10 L 527.40 809.80 L 526.30 810.80 L 525.40 810.50 L 525.00 809.60 L 525.00 804.00 L 525.60 798.50 L 526.60 793.10 L 528.10 787.70 L 530.00 782.60 L 532.50 777.60 L 533.20 777.00 L 534.20 777.20 L 534.60 777.80 L 534.60 778.70 Z" fill="#d3d3d3" fill-rule="nonzero" node-id="218" stroke="none" target-height="33.799988" target-width="9.599976" target-x="525" target-y="777"></path><path d="M 517.90 809.80 L 517.50 810.50 L 516.90 810.90 L 516.40 810.80 L 515.60 810.20 L 515.10 805.30 L 515.50 796.80 L 516.50 790.60 L 519.40 780.40 L 522.30 773.50 L 523.10 772.90 L 523.60 773.00 L 524.00 773.20 L 524.50 774.10 L 520.30 786.10 L 518.40 794.70 L 517.80 799.50 L 517.60 804.40 L 517.90 809.80 Z" fill="#d3d3d3" fill-rule="nonzero" node-id="220" stroke="none" target-height="38" target-width="9.400024" target-x="515.1" target-y="772.9"></path><path d="M 508.00 805.60 L 507.70 806.20 L 506.60 806.60 L 505.80 806.00 L 505.70 805.50 L 505.30 796.40 L 506.50 787.50 L 507.70 783.20 L 511.10 774.90 L 513.70 770.60 L 514.20 770.40 L 515.10 770.70 L 515.60 771.70 L 512.50 777.70 L 510.40 782.80 L 508.90 788.20 L 508.00 793.70 L 507.70 799.20 L 508.00 805.60 Z" fill="#d3d3d3" fill-rule="nonzero" node-id="222" stroke="none" target-height="36.19995" target-width="10.299988" target-x="505.3" target-y="770.4"></path><path d="M 495.70 802.50 L 495.40 803.20 L 494.30 803.60 L 493.30 802.50 L 492.90 798.90 L 493.00 792.00 L 493.80 787.10 L 494.80 782.60 L 497.60 775.00 L 501.50 767.70 L 502.30 767.20 L 502.80 767.20 L 503.70 768.40 L 498.60 779.30 L 496.30 787.40 L 495.60 792.10 L 495.40 796.90 L 495.70 802.50 Z" fill="#f9fafe" fill-rule="nonzero" node-id="224" stroke="none" target-height="36.399963" target-width="10.800018" target-x="492.9" target-y="767.2"></path><path d="M 465.40 750.70 L 423.10 719.80 L 407.50 708.60 L 389.20 696.20 L 381.20 692.10 L 373.60 689.30 L 364.50 687.60 L 358.90 687.30 L 396.90 612.80 L 251.90 639.40 L 248.60 654.70 L 247.40 661.90 L 245.40 679.60 L 244.90 695.60 L 245.70 708.30 L 246.70 714.50 L 248.10 720.40 L 249.90 725.90 L 251.90 730.60 L 256.70 739.00 L 259.30 742.60 L 263.30 747.20 L 267.50 751.20 L 271.90 754.70 L 281.10 760.60 L 285.70 762.80 L 294.90 766.30 L 305.20 768.80 L 310.10 769.40 L 317.10 769.80 L 332.30 769.60 L 352.80 768.10 L 362.00 767.20 L 365.80 769.70 L 373.80 773.50 L 389.20 778.70 L 407.10 783.50 L 425.00 787.70 L 456.10 793.90 L 460.40 785.20 L 462.00 780.90 L 463.60 775.60 L 464.90 770.00 L 465.80 763.80 L 466.00 759.60 L 465.40 750.70 Z" fill="#9e9e9e" fill-rule="nonzero" node-id="226" stroke="none" target-height="181.10004" target-width="221.1" target-x="244.9" target-y="612.8"></path><path d="M 458.30 789.80 L 459.00 788.30 L 442.10 784.70 L 423.00 780.20 L 403.60 774.70 L 394.20 771.50 L 385.60 768.20 L 375.20 763.20 L 359.80 753.70 L 354.00 750.70 L 350.20 750.10 L 333.60 749.50 L 323.20 748.70 L 314.20 747.40 L 306.30 745.70 L 299.50 743.70 L 294.00 741.60 L 289.10 739.20 L 284.90 736.50 L 281.30 733.70 L 278.10 730.60 L 275.40 727.20 L 273.30 723.70 L 271.50 720.10 L 270.20 716.30 L 268.50 708.50 L 267.90 702.50 L 267.70 696.50 L 270.40 636.00 L 268.80 636.30 L 266.50 685.00 L 266.10 696.40 L 266.30 702.40 L 267.60 712.70 L 270.10 720.70 L 271.90 724.50 L 274.10 728.20 L 276.90 731.70 L 280.20 734.90 L 283.90 737.80 L 288.20 740.50 L 293.20 743.00 L 298.80 745.20 L 310.40 748.30 L 325.00 750.50 L 333.50 751.20 L 350.20 751.80 L 353.60 752.30 L 374.30 764.60 L 384.70 769.60 L 393.30 772.90 L 402.80 776.10 L 422.20 781.60 L 441.30 786.20 L 458.30 789.80 Z" fill="#000000" fill-rule="nonzero" node-id="228" stroke="none" target-height="153.79999" target-width="192.9" target-x="266.1" target-y="636"></path><path d="M 267.90 694.30 L 267.70 692.70 L 272.80 691.80 L 276.80 690.70 L 280.00 689.20 L 282.90 687.40 L 285.30 685.30 L 287.00 683.00 L 289.40 677.70 L 290.10 674.70 L 290.60 670.20 L 290.70 665.40 L 289.30 632.50 L 290.90 632.50 L 292.00 654.30 L 292.20 670.30 L 291.70 675.00 L 291.00 678.10 L 289.90 681.00 L 288.40 683.70 L 286.60 686.20 L 284.10 688.50 L 281.00 690.50 L 277.60 692.10 L 273.30 693.40 L 267.90 694.30 Z" fill="#000000" fill-rule="nonzero" node-id="230" stroke="none" target-height="61.799988" target-width="24.5" target-x="267.7" target-y="632.5"></path><path d="M 352.30 758.90 L 344.50 760.40 L 333.20 761.80 L 319.70 762.50 L 312.50 762.40 L 305.20 761.80 L 300.30 761.10 L 291.00 758.90 L 285.30 756.90 L 279.80 754.40 L 274.60 751.50 L 269.60 748.10 L 265.00 744.40 L 260.60 740.30 L 256.70 735.80 L 253.10 731.00 L 249.90 725.90 L 251.90 730.60 L 256.70 739.00 L 259.30 742.60 L 263.30 747.20 L 267.50 751.20 L 271.90 754.70 L 276.50 757.90 L 285.70 762.80 L 290.40 764.80 L 299.00 767.50 L 305.20 768.80 L 310.10 769.40 L 316.90 769.80 L 331.70 769.60 L 361.90 767.20 L 356.90 763.30 L 352.30 758.90 Z" fill="#000000" fill-rule="nonzero" node-id="232" stroke="none" target-height="43.899963" target-width="112" target-x="249.9" target-y="725.9"></path><path d="M 420.10 706.70 L 410.20 699.00 L 399.50 692.40 L 388.10 687.10 L 381.10 685.30 L 369.90 684.20 L 354.90 684.20 L 334.20 685.70 L 320.90 687.30 L 348.10 687.10 L 358.80 687.50 L 366.60 688.10 L 371.50 688.90 L 378.30 690.90 L 387.20 695.60 L 396.40 701.30 L 409.20 709.90 L 420.10 706.70 Z" fill="#000000" fill-rule="nonzero" node-id="234" stroke="none" target-height="25.700012" target-width="99.20001" target-x="320.9" target-y="684.2"></path><path d="M 331.50 378.10 L 320.00 375.90 L 316.40 374.80 L 307.50 371.20 L 294.60 365.00 L 291.30 362.70 L 288.20 360.00 L 285.50 357.00 L 280.20 350.00 L 275.60 342.20 L 272.60 337.70 L 271.10 336.10 L 270.40 335.60 L 267.40 335.80 L 262.30 336.90 L 259.00 338.40 L 256.00 340.30 L 250.50 345.30 L 245.80 351.30 L 243.90 354.60 L 236.60 369.30 L 231.30 378.30 L 228.10 382.10 L 224.70 384.70 L 219.20 387.00 L 212.10 388.40 L 203.40 388.90 L 187.50 389.00 L 179.50 389.90 L 171.80 392.20 L 164.60 395.90 L 161.40 398.30 L 158.50 401.10 L 156.10 404.40 L 154.20 407.90 L 152.90 411.70 L 152.00 415.60 L 152.40 421.80 L 154.30 427.80 L 157.70 433.00 L 162.30 437.20 L 169.40 441.80 L 171.40 443.80 L 172.60 445.70 L 174.20 450.00 L 174.60 453.40 L 174.10 467.30 L 174.40 470.70 L 175.30 473.80 L 176.50 476.60 L 178.20 479.30 L 180.30 481.60 L 182.70 483.70 L 185.30 485.30 L 188.20 486.50 L 191.30 487.30 L 195.20 487.60 L 209.80 486.80 L 214.90 487.60 L 219.60 489.80 L 228.30 495.80 L 231.90 497.70 L 235.50 499.20 L 239.10 500.20 L 242.80 500.70 L 247.80 500.90 L 252.80 500.60 L 257.80 499.80 L 262.80 498.50 L 267.70 496.90 L 282.20 491.00 L 286.90 488.80 L 300.80 480.00 L 307.70 477.10 L 311.40 476.10 L 318.10 475.00 L 338.00 472.40 L 344.50 471.10 L 350.90 469.40 L 355.00 468.00 L 359.10 466.10 L 363.20 463.80 L 365.50 462.10 L 369.50 458.00 L 372.10 454.50 L 374.40 450.60 L 378.00 442.70 L 379.30 438.90 L 380.10 435.10 L 380.50 431.50 L 380.50 426.00 L 379.90 420.20 L 379.10 415.80 L 377.90 411.60 L 376.30 407.50 L 374.30 403.50 L 371.90 399.80 L 369.20 396.30 L 366.10 393.20 L 362.70 390.30 L 359.60 388.20 L 352.80 384.90 L 342.30 381.20 L 331.50 378.10 Z" fill="#000000" fill-rule="nonzero" node-id="236" stroke="none" target-height="165.29999" target-width="228.5" target-x="152" target-y="335.6"></path><path d="M 635.40 512.00 L 632.90 510.80 L 630.30 510.10 L 627.50 510.00 L 624.20 510.20 L 614.40 512.20 L 601.80 513.90 L 592.90 513.90 L 589.30 513.20 L 586.80 511.90 L 586.50 510.80 L 586.90 510.20 L 598.20 505.30 L 600.30 503.80 L 602.00 502.00 L 603.20 499.80 L 604.00 497.40 L 604.10 495.90 L 603.60 494.40 L 602.30 493.60 L 589.80 495.90 L 575.60 499.30 L 568.60 501.50 L 561.90 504.40 L 557.60 506.60 L 553.50 509.30 L 544.10 516.40 L 538.20 519.90 L 532.00 522.90 L 466.10 545.50 L 428.90 509.70 L 397.20 477.90 L 385.10 467.50 L 377.40 462.40 L 370.30 459.30 L 365.00 457.90 L 359.90 457.20 L 350.10 456.40 L 363.50 525.60 L 444.90 588.80 L 450.80 592.50 L 453.80 593.70 L 459.40 594.40 L 465.00 593.80 L 469.60 592.60 L 475.70 590.50 L 487.20 585.80 L 495.50 582.00 L 544.70 556.40 L 549.50 554.10 L 558.00 550.80 L 560.60 550.10 L 565.00 549.50 L 580.70 550.20 L 586.80 549.70 L 598.20 547.60 L 603.30 546.00 L 611.90 542.30 L 613.70 541.20 L 615.10 539.90 L 618.30 534.20 L 622.90 530.70 L 624.20 529.30 L 626.50 523.80 L 627.70 521.90 L 629.20 520.50 L 635.00 517.70 L 636.70 516.40 L 637.20 515.40 L 637.10 513.90 L 635.40 512.00 Z" fill="#ffe6e5" fill-rule="nonzero" node-id="238" stroke="none" target-height="138.00003" target-width="287.1" target-x="350.1" target-y="456.4"></path><path d="M 349.90 456.10 L 360.70 456.60 L 365.60 457.30 L 370.20 458.50 L 376.20 461.00 L 383.90 465.90 L 394.50 474.70 L 402.80 482.50 L 466.30 544.80 L 499.20 534.20 L 498.50 537.40 L 498.20 543.00 L 499.10 550.60 L 500.40 555.20 L 501.60 558.60 L 505.00 565.00 L 509.40 570.60 L 512.10 573.10 L 503.90 577.90 L 495.60 582.40 L 487.00 586.40 L 478.30 590.20 L 470.80 592.90 L 465.30 594.50 L 458.80 595.40 L 454.10 594.90 L 450.20 593.60 L 444.80 590.20 L 361.40 526.30 L 349.90 456.10 Z" fill="#9e9e9e" fill-rule="nonzero" node-id="240" stroke="none" target-height="139.30002" target-width="162.19998" target-x="349.9" target-y="456.1"></path><path d="M 584.30 515.80 L 582.20 518.70 L 579.80 521.30 L 577.00 523.60 L 573.90 525.50 L 570.60 527.00 L 567.20 528.00 L 563.70 528.60 L 560.00 528.70 L 565.50 529.60 L 567.80 529.70 L 572.80 529.10 L 575.10 528.20 L 578.00 526.20 L 580.00 524.50 L 581.50 522.70 L 582.60 520.70 L 584.30 515.80 Z" fill="#bd6f00" fill-rule="nonzero" node-id="242" stroke="none" target-height="13.900024" target-width="24.299988" target-x="560" target-y="515.8"></path><path d="M 254.80 623.20 L 258.00 609.80 L 259.80 599.20 L 259.90 595.80 L 259.40 590.80 L 258.30 585.50 L 254.80 572.50 L 247.20 549.80 L 244.10 539.00 L 242.70 528.80 L 242.50 522.10 L 242.90 515.70 L 243.70 509.60 L 246.40 497.90 L 250.80 484.80 L 257.70 466.80 L 288.10 459.60 L 305.10 459.50 L 316.90 458.60 L 322.70 457.70 L 328.20 456.50 L 332.70 455.10 L 349.90 456.30 L 367.50 471.60 L 377.80 481.40 L 382.80 486.70 L 387.30 492.30 L 390.00 496.20 L 394.30 504.20 L 396.10 508.90 L 397.20 513.90 L 397.90 519.30 L 397.90 524.80 L 397.30 530.40 L 396.10 536.10 L 394.30 541.70 L 391.90 547.10 L 388.80 552.50 L 389.80 590.70 L 395.40 613.10 L 394.80 616.70 L 392.50 624.20 L 390.60 628.10 L 387.70 633.00 L 384.00 638.00 L 379.60 643.00 L 374.80 647.60 L 369.30 652.00 L 363.20 656.20 L 356.70 660.00 L 349.70 663.40 L 342.00 666.40 L 336.20 668.30 L 323.70 671.10 L 317.10 672.00 L 306.60 672.90 L 289.80 673.30 L 282.00 672.90 L 269.90 671.50 L 262.20 669.80 L 256.70 668.20 L 252.10 666.40 L 247.20 663.60 L 248.10 655.80 L 250.40 643.40 L 254.80 623.20 Z" fill="#0073ef" fill-rule="nonzero" node-id="244" stroke="none" target-height="218.19998" target-width="155.4" target-x="242.5" target-y="455.1"></path><g node-id="330"><path d="M 341.20 561.20 L 338.10 564.40 L 335.50 566.60 L 332.40 568.70 L 325.40 572.20 L 318.20 574.30 L 314.30 575.00 L 305.00 575.10 L 300.00 574.50 L 295.70 573.50 L 292.00 572.10 L 285.50 568.40 L 283.10 566.40 L 279.80 563.10 L 277.50 560.00 L 275.70 557.00 L 273.90 552.60 L 274.30 556.70 L 276.00 563.00 L 277.70 566.60 L 280.70 571.20 L 285.20 575.60 L 288.00 577.50 L 291.40 579.20 L 295.00 580.50 L 299.20 581.50 L 304.20 582.10 L 309.70 582.20 L 314.60 581.70 L 318.70 580.70 L 322.80 579.20 L 326.30 577.50 L 329.30 575.60 L 334.30 571.20 L 338.60 565.90 L 341.20 561.20 Z" fill="#000000" fill-opacity="0.2" fill-rule="nonzero" group-id="2" node-id="248" stroke="none" target-height="29.600037" target-width="67.30002" target-x="273.9" target-y="552.6"></path></g><path d="M 282.30 435.40 L 281.90 433.10 L 281.00 430.60 L 279.50 427.80 L 276.70 423.60 L 265.20 408.10 L 259.30 398.80 L 256.30 393.10 L 253.50 386.90 L 250.70 378.20 L 249.80 373.70 L 249.40 369.20 L 249.60 364.90 L 250.20 360.70 L 251.20 357.70 L 254.30 351.50 L 256.50 348.50 L 259.10 345.90 L 262.10 343.80 L 266.70 341.90 L 269.30 341.40 L 270.20 336.10 L 271.50 331.60 L 274.10 326.10 L 275.80 323.60 L 280.40 318.70 L 283.50 316.10 L 287.10 313.60 L 291.10 311.30 L 295.30 309.50 L 300.60 307.90 L 306.50 306.80 L 314.10 305.90 L 319.80 305.60 L 324.90 305.80 L 329.50 306.30 L 333.90 307.30 L 338.00 308.60 L 345.40 312.10 L 352.10 316.60 L 361.30 324.90 L 363.50 326.60 L 365.60 327.70 L 367.70 328.20 L 369.90 328.40 L 374.00 327.80 L 376.70 326.60 L 378.90 325.10 L 380.50 323.40 L 381.20 322.00 L 382.00 324.80 L 382.40 327.40 L 382.50 330.10 L 382.00 332.70 L 381.10 335.10 L 379.60 337.60 L 377.70 339.70 L 375.10 341.80 L 371.80 343.70 L 374.00 344.60 L 376.10 346.00 L 378.10 348.00 L 379.70 350.40 L 381.00 353.10 L 382.10 356.30 L 382.70 359.70 L 382.80 363.20 L 382.50 366.90 L 381.70 370.50 L 380.30 374.10 L 378.20 377.70 L 376.40 380.20 L 371.30 384.90 L 367.90 387.10 L 282.30 435.40 Z" fill="#000000" fill-rule="nonzero" node-id="251" stroke="none" target-height="129.79999" target-width="133.4" target-x="249.4" target-y="305.6"></path><path d="M 344.20 335.40 L 346.10 336.60 L 350.70 341.00 L 355.00 347.00 L 359.10 355.10 L 363.00 366.40 L 364.80 373.30 L 366.30 381.70 L 367.30 388.70 L 367.90 400.00 L 367.20 409.80 L 365.40 417.40 L 363.20 423.20 L 361.10 426.90 L 359.20 429.40 L 355.70 432.90 L 353.20 434.50 L 349.90 435.90 L 345.70 437.00 L 336.00 438.10 L 329.30 438.30 L 330.50 448.20 L 330.90 449.40 L 332.50 451.10 L 334.20 452.00 L 336.20 452.70 L 341.50 453.40 L 345.60 457.60 L 348.90 461.80 L 351.60 466.50 L 352.30 468.90 L 352.40 471.10 L 351.90 473.00 L 350.90 474.80 L 347.20 478.60 L 341.70 482.00 L 334.90 484.70 L 330.80 485.70 L 322.40 486.80 L 313.00 486.50 L 308.20 485.80 L 303.20 484.50 L 299.80 483.20 L 296.10 481.30 L 288.90 476.50 L 282.50 471.30 L 274.80 464.00 L 277.80 462.40 L 281.40 459.40 L 282.80 457.40 L 283.90 454.30 L 280.80 419.70 L 278.90 421.10 L 277.40 421.70 L 273.30 422.40 L 270.80 422.10 L 267.80 421.00 L 265.10 419.60 L 262.80 417.90 L 259.00 413.80 L 256.60 409.00 L 255.40 404.00 L 255.70 399.00 L 257.40 394.60 L 260.40 390.90 L 264.00 388.90 L 268.10 388.30 L 272.40 389.20 L 276.60 391.60 L 282.00 397.10 L 283.30 397.90 L 284.80 398.10 L 287.80 397.20 L 289.40 396.10 L 291.60 393.90 L 293.80 390.90 L 295.60 387.60 L 297.00 383.90 L 297.90 380.00 L 298.20 376.10 L 298.10 360.90 L 299.00 354.70 L 300.80 350.60 L 303.80 347.20 L 306.00 345.50 L 308.40 344.40 L 310.70 343.90 L 313.20 343.90 L 315.80 344.30 L 324.10 346.70 L 326.90 347.00 L 329.70 347.00 L 332.50 346.50 L 335.20 345.40 L 337.80 343.80 L 339.50 342.40 L 342.70 338.20 L 344.20 335.40 Z" fill="#ffe6e5" fill-rule="nonzero" node-id="253" stroke="none" target-height="151.4" target-width="112.5" target-x="255.4" target-y="335.4"></path><path d="M 324.80 409.10 L 340.90 411.70 L 339.90 414.70 L 337.90 417.00 L 335.00 418.40 L 331.90 418.60 L 328.90 417.40 L 326.50 415.30 L 325.10 412.40 L 324.80 409.10 Z" fill="#e0342a" fill-rule="nonzero" node-id="255" stroke="none" target-height="9.5" target-width="16.100006" target-x="324.8" target-y="409.1"></path><path d="M 326.90 411.30 L 325.00 411.80 L 326.30 414.90 L 327.40 416.30 L 330.20 418.10 L 331.90 418.60 L 334.00 418.60 L 336.00 418.10 L 335.60 416.60 L 334.00 413.90 L 331.40 412.10 L 328.50 411.30 L 326.90 411.30 Z" fill="#ff9f99" fill-rule="nonzero" node-id="257" stroke="none" target-height="7.3000183" target-width="11" target-x="325" target-y="411.3"></path><path d="M 324.80 380.70 L 324.70 383.20 L 324.10 384.30 L 322.10 385.90 L 319.60 386.00 L 318.50 385.60 L 316.70 383.80 L 316.30 381.30 L 316.60 380.10 L 318.20 378.20 L 319.30 377.70 L 321.10 377.50 L 322.70 378.10 L 324.00 379.20 L 324.80 380.70 Z" fill="#000000" fill-rule="nonzero" node-id="259" stroke="none" target-height="8.5" target-width="8.5" target-x="316.3" target-y="377.5"></path><path d="M 357.60 365.10 L 347.10 364.00 L 347.60 362.00 L 348.80 360.40 L 350.60 359.40 L 352.70 359.20 L 354.10 359.60 L 356.30 361.20 L 357.10 362.40 L 357.60 365.10 Z" fill="#000000" fill-rule="nonzero" node-id="261" stroke="none" target-height="5.899994" target-width="10.5" target-x="347.1" target-y="359.2"></path><path d="M 319.50 368.20 L 309.80 375.10 L 308.80 373.10 L 308.60 370.80 L 309.40 368.60 L 311.00 366.90 L 312.40 366.20 L 313.90 365.80 L 315.50 365.80 L 317.00 366.30 L 318.40 367.10 L 319.50 368.20 Z" fill="#000000" fill-rule="nonzero" node-id="263" stroke="none" target-height="9.300018" target-width="10.899994" target-x="308.6" target-y="365.8"></path><path d="M 357.10 374.60 L 357.20 375.90 L 356.40 378.20 L 354.40 379.70 L 351.90 379.90 L 349.80 378.70 L 349.10 377.60 L 348.60 376.40 L 348.90 374.00 L 350.50 372.10 L 351.70 371.50 L 352.80 371.40 L 355.00 372.00 L 356.60 373.50 L 357.10 374.60 Z" fill="#000000" fill-rule="nonzero" node-id="265" stroke="none" target-height="8.5" target-width="8.600006" target-x="348.6" target-y="371.4"></path><path d="M 335.00 374.80 L 341.90 401.80 L 356.00 394.00 L 335.00 374.80 Z" fill="#bd6f00" fill-rule="nonzero" node-id="267" stroke="none" target-height="27" target-width="21" target-x="335" target-y="374.8"></path><path d="M 329.30 438.30 L 323.50 437.70 L 318.10 436.70 L 313.00 435.30 L 308.00 433.50 L 303.50 431.40 L 299.50 429.00 L 295.90 426.20 L 292.90 423.20 L 290.40 419.80 L 292.80 425.60 L 296.10 430.90 L 298.10 433.30 L 300.40 435.50 L 303.60 437.80 L 307.30 439.70 L 311.20 441.20 L 319.00 443.20 L 330.00 444.40 L 329.30 438.30 Z" fill="#bd6f00" fill-rule="nonzero" node-id="269" stroke="none" target-height="24.600006" target-width="39.600006" target-x="290.4" target-y="419.8"></path><path d="M 283.80 445.60 L 284.70 456.70 L 288.00 472.70 L 297.30 501.70 L 300.20 511.80 L 304.90 532.50 L 308.00 552.60 L 310.40 575.50 L 312.50 600.40 L 314.20 625.50 L 315.30 659.60 L 314.90 676.90 L 314.30 682.80 L 306.10 684.60 L 300.80 685.40 L 287.80 686.50 L 280.80 686.70 L 273.70 686.60 L 266.70 686.00 L 257.80 684.50 L 249.90 681.90 L 246.50 680.30 L 243.60 678.30 L 244.80 668.40 L 246.90 655.80 L 255.80 607.90 L 256.40 602.80 L 256.60 593.60 L 255.60 584.50 L 254.50 579.80 L 251.40 569.80 L 245.80 555.40 L 243.30 547.20 L 240.90 536.20 L 239.90 525.20 L 240.00 519.50 L 240.40 513.50 L 241.30 508.00 L 242.90 501.70 L 247.00 489.10 L 251.70 477.60 L 256.90 466.10 L 272.60 462.00 L 276.30 460.40 L 278.10 459.30 L 279.90 457.70 L 281.40 455.70 L 282.70 453.00 L 283.60 448.60 L 283.80 445.60 Z" fill="#000000" fill-rule="nonzero" node-id="271" stroke="none" target-height="241.1" target-width="75.399994" target-x="239.9" target-y="445.6"></path><path d="M 256.90 466.00 L 267.20 463.10 L 277.10 459.30 L 277.90 461.10 L 272.70 462.80 L 267.40 464.00 L 256.90 466.00 Z" fill="#000000" fill-rule="nonzero" node-id="273" stroke="none" target-height="6.700012" target-width="21" target-x="256.9" target-y="459.3"></path><path d="M 336.90 455.20 L 342.20 459.30 L 349.30 466.70 L 353.70 472.10 L 362.10 483.70 L 369.80 495.50 L 374.20 503.60 L 377.80 513.20 L 379.30 518.80 L 380.70 525.10 L 382.30 535.10 L 383.70 547.20 L 384.70 560.10 L 386.90 614.50 L 388.50 645.80 L 395.40 637.10 L 401.00 627.50 L 403.90 619.40 L 405.30 610.90 L 403.20 607.20 L 400.30 598.70 L 398.80 591.60 L 397.70 583.50 L 396.90 572.40 L 396.70 561.50 L 396.90 552.70 L 398.90 525.90 L 399.00 520.60 L 398.60 515.50 L 397.70 511.10 L 395.40 503.60 L 392.90 498.60 L 390.10 494.10 L 383.30 486.00 L 375.80 478.20 L 367.50 470.50 L 358.90 463.10 L 349.90 456.10 L 336.90 455.20 Z" fill="#000000" fill-rule="nonzero" node-id="275" stroke="none" target-height="190.59998" target-width="68.399994" target-x="336.9" target-y="455.2"></path><path d="M 299.00 507.40 L 298.40 503.70 L 298.10 495.40 L 299.40 474.90 L 298.60 472.70 L 289.00 457.80 L 285.10 450.80 L 283.90 447.50 L 283.20 444.40 L 282.60 437.90 L 281.50 438.70 L 280.60 441.30 L 280.10 449.60 L 278.70 455.40 L 277.50 458.00 L 275.80 460.20 L 276.70 465.50 L 280.10 475.10 L 286.40 488.50 L 290.30 495.20 L 294.60 501.70 L 299.00 507.40 Z" fill="#000000" fill-rule="nonzero" node-id="277" stroke="none" target-height="69.5" target-width="23.600006" target-x="275.8" target-y="437.9"></path><path d="M 333.80 454.70 L 345.70 466.80 L 357.00 479.40 L 367.90 492.40 L 364.30 486.50 L 361.10 478.60 L 358.80 469.40 L 356.90 459.20 L 355.60 454.60 L 354.20 453.20 L 343.50 447.40 L 329.40 438.20 L 330.30 446.50 L 330.90 449.50 L 332.10 452.20 L 333.80 454.70 Z" fill="#000000" fill-rule="nonzero" node-id="279" stroke="none" target-height="54.19998" target-width="38.5" target-x="329.4" target-y="438.2"></path><path d="M 256.20 467.70 L 245.20 470.70 L 240.70 472.50 L 236.40 474.60 L 232.60 477.10 L 229.20 480.10 L 226.20 483.50 L 223.30 487.60 L 220.70 492.60 L 212.00 514.80 L 199.80 549.40 L 181.50 603.60 L 179.80 609.70 L 178.60 614.90 L 177.70 625.30 L 178.00 636.60 L 181.20 680.10 L 182.40 699.70 L 182.50 708.40 L 182.30 715.00 L 181.80 719.20 L 181.00 721.90 L 180.20 723.60 L 178.20 725.90 L 175.10 728.60 L 167.60 734.10 L 151.80 744.80 L 146.80 749.20 L 141.50 756.40 L 136.50 763.80 L 131.90 771.40 L 131.40 773.10 L 131.40 774.90 L 131.90 776.00 L 132.80 777.10 L 134.30 778.20 L 136.10 779.00 L 142.40 780.20 L 153.80 780.60 L 156.70 780.20 L 159.50 779.40 L 162.30 778.10 L 164.90 776.40 L 179.10 763.10 L 184.40 758.80 L 191.40 754.20 L 197.90 750.50 L 201.80 748.70 L 203.00 749.10 L 202.50 751.10 L 198.10 757.30 L 193.30 763.10 L 192.40 765.20 L 191.80 767.40 L 191.80 769.40 L 192.20 771.30 L 193.20 772.80 L 194.50 773.10 L 197.50 771.70 L 213.40 760.00 L 216.50 757.30 L 218.90 754.70 L 221.00 751.80 L 222.50 748.90 L 223.50 746.00 L 224.20 743.00 L 224.50 736.50 L 221.70 707.40 L 221.40 698.70 L 222.00 677.70 L 225.60 626.50 L 263.20 537.60 L 264.70 531.10 L 266.20 520.50 L 266.70 513.70 L 266.80 506.70 L 266.30 498.90 L 265.60 493.70 L 263.20 483.10 L 261.30 477.90 L 259.00 472.70 L 256.20 467.70 Z" fill="#ffe6e5" fill-rule="nonzero" node-id="281" stroke="none" target-height="312.89996" target-width="135.4" target-x="131.4" target-y="467.7"></path><path d="M 256.90 466.00 L 245.00 469.20 L 238.20 471.90 L 232.30 475.50 L 229.40 478.10 L 226.50 481.30 L 224.00 484.80 L 221.40 489.20 L 218.60 494.80 L 213.50 507.10 L 207.60 523.10 L 180.10 604.50 L 178.00 612.00 L 177.30 618.40 L 177.40 630.90 L 178.40 647.40 L 180.80 674.60 L 184.10 672.30 L 187.60 670.30 L 191.30 668.70 L 195.10 667.60 L 199.00 666.80 L 203.00 666.50 L 208.00 666.60 L 211.90 667.10 L 215.40 668.00 L 220.00 670.10 L 222.30 671.80 L 226.70 628.40 L 252.00 568.90 L 263.30 543.40 L 266.50 532.50 L 267.80 525.70 L 268.60 518.60 L 269.10 505.80 L 268.30 495.30 L 267.40 490.00 L 264.50 479.90 L 262.40 475.00 L 259.90 470.40 L 256.90 466.00 Z" fill="#9e9e9e" fill-rule="nonzero" node-id="283" stroke="none" target-height="208.59998" target-width="91.8" target-x="177.3" target-y="466"></path><path d="M 761.10 305.20 L 689.80 245.50 L 597.80 295.80 L 669.10 358.00 L 761.10 305.20 Z" fill="#b6d9ff" fill-rule="nonzero" node-id="285" stroke="#000000" stroke-linecap="round" stroke-width="0.115887" target-height="112.5" target-width="163.29999" target-x="597.8" target-y="245.5"></path><path d="M 833.80 134.60 L 776.20 167.90" fill="none" node-id="287" stroke="#000000" stroke-linecap="round" stroke-width="0.115887" target-height="33.299988" target-width="57.599976" target-x="776.2" target-y="134.6"></path><path d="M 845.90 127.60 L 840.00 131.00" fill="none" node-id="289" stroke="#000000" stroke-linecap="round" stroke-width="0.115887" target-height="3.4000015" target-width="5.9000244" target-x="840" target-y="127.6"></path><path d="M 742.00 175.90 L 742.00 90.50 L 813.30 150.20 L 813.30 235.60 L 742.00 175.90 Z" fill="#0073ef" fill-rule="nonzero" node-id="291" stroke="#000000" stroke-linecap="round" stroke-width="0.115887" target-height="145.1" target-width="71.29999" target-x="742" target-y="90.5"></path><path d="M 546.50 125.00 L 588.20 159.40" fill="none" node-id="293" stroke="#000000" stroke-linecap="round" stroke-width="0.115887" target-height="34.399994" target-width="41.700012" target-x="546.5" target-y="125"></path><path d="M 537.00 117.20 L 541.60 121.00" fill="none" node-id="295" stroke="#000000" stroke-linecap="round" stroke-width="0.115887" target-height="3.800003" target-width="4.5999756" target-x="537" target-y="117.2"></path><path d="M 649.70 89.40 L 649.70 174.80 L 557.80 225.10 L 557.80 139.60 L 649.70 89.40 Z" fill="#0073ef" fill-rule="nonzero" node-id="297" stroke="#000000" stroke-linecap="round" stroke-width="0.115887" target-height="135.70001" target-width="91.900024" target-x="557.8" target-y="89.4"></path><path d="M 689.80 125.00 L 597.80 175.20 L 597.80 260.60 L 669.10 322.90 L 761.10 270.00 L 761.10 184.60 L 689.80 125.00 Z" fill="none" node-id="299" stroke="#000000" stroke-dasharray="0.35 0.35" stroke-linecap="round" stroke-width="0.115887" target-height="197.9" target-width="163.29999" target-x="597.8" target-y="125"></path><path d="M 597.80 175.20 L 669.10 237.50 L 759.60 185.10" fill="none" node-id="301" stroke="#000000" stroke-dasharray="0.35 0.35" stroke-linecap="round" stroke-width="0.115887" target-height="62.300003" target-width="161.79999" target-x="597.8" target-y="175.2"></path><path d="M 669.10 237.50 L 669.10 322.90" fill="none" node-id="303" stroke="#000000" stroke-dasharray="0.35 0.35" stroke-linecap="round" stroke-width="0.115887" target-height="85.399994" target-width="0" target-x="669.1" target-y="237.5"></path><path d="M 689.80 125.00 L 689.80 210.40 L 745.10 256.20" fill="none" node-id="305" stroke="#000000" stroke-dasharray="0.35 0.35" stroke-linecap="round" stroke-width="0.115887" target-height="131.20001" target-width="55.299988" target-x="689.8" target-y="125"></path><path d="M 689.80 210.40 L 610.20 253.40" fill="none" node-id="307" stroke="#000000" stroke-dasharray="0.35 0.35" stroke-linecap="round" stroke-width="0.115887" target-height="43" target-width="79.599976" target-x="610.2" target-y="210.4"></path><path d="M 554.50 206.30 L 554.50 291.80 L 625.80 354.00 L 625.80 268.60 L 554.50 206.30 Z" fill="#0073ef" fill-rule="nonzero" node-id="309" stroke="#000000" stroke-linecap="round" stroke-width="0.115887" target-height="147.7" target-width="71.29999" target-x="554.5" target-y="206.3"></path><path d="M 524.20 313.00 L 519.40 315.80" fill="none" node-id="311" stroke="#000000" stroke-linecap="round" stroke-width="0.115887" target-height="2.7999878" target-width="4.799988" target-x="519.4" target-y="313"></path><path d="M 579.90 280.80 L 529.20 310.10" fill="none" node-id="313" stroke="#000000" stroke-linecap="round" stroke-width="0.115887" target-height="29.300018" target-width="50.700012" target-x="529.2" target-y="280.8"></path><path d="M 589.10 275.50 L 584.20 278.30" fill="none" node-id="315" stroke="#000000" stroke-linecap="round" stroke-width="0.115887" target-height="2.7999878" target-width="4.8999634" target-x="584.2" target-y="275.5"></path><path d="M 708.40 364.90 L 708.40 279.50 L 800.40 226.70 L 800.40 312.10 L 708.40 364.90 Z" fill="#0073ef" fill-rule="nonzero" node-id="317" stroke="#000000" stroke-linecap="round" stroke-width="0.115887" target-height="138.2" target-width="92" target-x="708.4" target-y="226.7"></path><path d="M 809.80 341.00 L 815.20 345.40" fill="none" node-id="319" stroke="#000000" stroke-linecap="round" stroke-width="0.115887" target-height="4.399994" target-width="5.4000244" target-x="809.8" target-y="341"></path><path d="M 757.20 297.30 L 806.30 338.00" fill="none" node-id="321" stroke="#000000" stroke-linecap="round" stroke-width="0.115887" target-height="40.700012" target-width="49.099976" target-x="757.2" target-y="297.3"></path><path d="M 761.10 139.00 L 689.80 79.40 L 597.80 129.60 L 669.10 191.90 L 761.10 139.00 Z" fill="#b6d9ff" fill-rule="nonzero" node-id="323" stroke="#000000" stroke-linecap="round" stroke-width="0.115887" target-height="112.49999" target-width="163.29999" target-x="597.8" target-y="79.4"></path><path d="M 678.20 68.60 L 678.20 59.40" fill="none" node-id="325" stroke="#000000" stroke-linecap="round" stroke-width="0.115887" target-height="9.199997" target-width="0" target-x="678.2" target-y="59.4"></path><path d="M 678.20 131.60 L 678.20 75.10" fill="none" node-id="327" stroke="#000000" stroke-linecap="round" stroke-width="0.115887" target-height="56.500008" target-width="0" target-x="678.2" target-y="75.1"></path></svg>